<svg id="visual" viewBox="0 0 900 600" width="900" height="600" xmlns="http://www.w3.org/2000/svg" xmlns:xlink="http://www.w3.org/1999/xlink" version="1.1"><path d="M0 528L16.7 529C33.3 530 66.7 532 100 530.3C133.3 528.7 166.7 523.3 200 518C233.3 512.7 266.7 507.3 300 508C333.3 508.7 366.7 515.3 400 515.5C433.3 515.7 466.7 509.3 500 510.3C533.3 511.3 566.7 519.7 600 524.7C633.3 529.7 666.7 531.3 700 528.2C733.3 525 766.7 517 800 512.8C833.3 508.7 866.7 508.3 883.3 508.2L900 508L900 601L883.3 601C866.7 601 833.3 601 800 601C766.7 601 733.3 601 700 601C666.7 601 633.3 601 600 601C566.7 601 533.3 601 500 601C466.7 601 433.3 601 400 601C366.7 601 333.3 601 300 601C266.7 601 233.3 601 200 601C166.7 601 133.3 601 100 601C66.7 601 33.3 601 16.7 601L0 601Z" fill="#5a9f4d"></path><path d="M0 547L16.7 545.5C33.3 544 66.7 541 100 539.5C133.3 538 166.7 538 200 539.3C233.3 540.7 266.7 543.3 300 542.5C333.3 541.7 366.7 537.3 400 535.3C433.3 533.3 466.7 533.7 500 535.8C533.3 538 566.7 542 600 544.5C633.3 547 666.7 548 700 547.5C733.3 547 766.7 545 800 542.5C833.3 540 866.7 537 883.3 535.5L900 534L900 601L883.3 601C866.7 601 833.3 601 800 601C766.7 601 733.3 601 700 601C666.7 601 633.3 601 600 601C566.7 601 533.3 601 500 601C466.7 601 433.3 601 400 601C366.7 601 333.3 601 300 601C266.7 601 233.3 601 200 601C166.7 601 133.3 601 100 601C66.7 601 33.3 601 16.7 601L0 601Z" fill="#0098bb"></path><path d="M0 569L16.7 571.3C33.3 573.7 66.7 578.3 100 577.8C133.3 577.3 166.7 571.7 200 569.7C233.3 567.7 266.7 569.3 300 567.3C333.3 565.3 366.7 559.7 400 560.7C433.3 561.7 466.7 569.3 500 571.3C533.3 573.3 566.7 569.7 600 566C633.3 562.3 666.7 558.7 700 561.2C733.3 563.7 766.7 572.3 800 572.3C833.3 572.3 866.7 563.7 883.3 559.3L900 555L900 601L883.3 601C866.7 601 833.3 601 800 601C766.7 601 733.3 601 700 601C666.7 601 633.3 601 600 601C566.7 601 533.3 601 500 601C466.7 601 433.3 601 400 601C366.7 601 333.3 601 300 601C266.7 601 233.3 601 200 601C166.7 601 133.3 601 100 601C66.7 601 33.3 601 16.7 601L0 601Z" fill="#4169e1"></path></svg>